<mxfile host="app.diagrams.net" modified="2023-11-03T20:32:11.868Z" agent="Mozilla/5.0 (Windows NT 10.0; Win64; x64) AppleWebKit/537.36 (KHTML, like Gecko) Chrome/118.0.0.0 Safari/537.36" version="22.0.8" etag="m_qqCyhYghrndS9AbRUX" type="github">
  <diagram name="PÃ¡gina-1" id="R1tW4xnkmmYv7JkuXug6">
    <mxGraphModel>
      <root>
        <mxCell id="0" />
        <mxCell id="1" parent="0" />
      </root>
    </mxGraphModel>
  </diagram>
</mxfile>
